<svg width="135" height="36" viewBox="0 0 135 36" fill="none" xmlns="http://www.w3.org/2000/svg">
<mask id="path-1-inside-1_1_1149" fill="white">
<path d="M0 1.99982C0 0.895248 0.895431 -0.000183105 2 -0.000183105H133C134.105 -0.000183105 135 0.895247 135 1.99982V33.9998C135 35.1044 134.105 35.9998 133 35.9998H2C0.895428 35.9998 0 35.1044 0 33.9998V1.99982Z"/>
</mask>
<path d="M0 1.99982C0 0.895248 0.895431 -0.000183105 2 -0.000183105H133C134.105 -0.000183105 135 0.895247 135 1.99982V33.9998C135 35.1044 134.105 35.9998 133 35.9998H2C0.895428 35.9998 0 35.1044 0 33.9998V1.99982Z" fill="white" fill-opacity="0.1"/>
<path d="M1 1.99982C1 1.44753 1.44772 0.999817 2 0.999817V-1.00018C0.343145 -1.00018 -1 0.342964 -1 1.99982H1ZM2 0.999817H133V-1.00018H2V0.999817ZM133 0.999817C133.552 0.999817 134 1.44753 134 1.99982H136C136 0.342962 134.657 -1.00018 133 -1.00018V0.999817ZM134 1.99982V33.9998H136V1.99982H134ZM134 33.9998C134 34.5521 133.552 34.9998 133 34.9998V36.9998C134.657 36.9998 136 35.6567 136 33.9998H134ZM133 34.9998H2V36.9998H133V34.9998ZM2 34.9998C1.44771 34.9998 1 34.5521 1 33.9998H-1C-1 35.6567 0.343141 36.9998 2 36.9998V34.9998ZM1 33.9998V1.99982H-1V33.9998H1Z" fill="white" fill-opacity="0.07" mask="url(#path-1-inside-1_1_1149)"/>
</svg>
